<svg width="6" height="12" viewBox="0 0 6 12" fill="none" xmlns="http://www.w3.org/2000/svg">
<path d="M0.157843 0.931541L4.76884 5.61654C4.86997 5.71876 4.92669 5.85675 4.92669 6.00054C4.92669 6.14433 4.86997 6.28232 4.76884 6.38454L0.158843 11.0695C0.0577669 11.1724 0.00113056 11.3108 0.00113056 11.455C0.00113055 11.5992 0.0577669 11.7377 0.158843 11.8405C0.208219 11.8912 0.267235 11.9314 0.332412 11.9589C0.397589 11.9864 0.467608 12.0006 0.538343 12.0006C0.609077 12.0006 0.679096 11.9864 0.744273 11.9589C0.80945 11.9314 0.868465 11.8912 0.917842 11.8405L5.52784 7.15654C5.83077 6.84802 6.00049 6.43292 6.00049 6.00054C6.00049 5.56816 5.83077 5.15306 5.52784 4.84454L0.917843 0.160541C0.86845 0.109739 0.809373 0.0693567 0.744103 0.0417819C0.678834 0.0142072 0.608698 -2.35683e-07 0.537843 -2.3878e-07C0.466988 -2.41877e-07 0.396852 0.0142072 0.331583 0.0417819C0.266314 0.0693566 0.207235 0.109739 0.157843 0.160541C0.056767 0.263396 0.000130636 0.401834 0.00013063 0.546041C0.000130623 0.690247 0.056767 0.828685 0.157843 0.931541Z" fill="black" fill-opacity="0.62"/>
</svg>
